<?xml version="1.0" standalone="no"?>
<!DOCTYPE svg PUBLIC "-//W3C//DTD SVG 20010904//EN"
 "http://www.w3.org/TR/2001/REC-SVG-20010904/DTD/svg10.dtd">
<svg version="1.0" xmlns="http://www.w3.org/2000/svg"
 width="70.000000pt" height="70.000000pt" viewBox="0 0 70.000000 70.000000"
 preserveAspectRatio="xMidYMid meet">
<metadata>
Created by potrace 1.11, written by Peter Selinger 2001-2013
</metadata>
<g transform="translate(0.000000,70.000000) scale(0.100000,-0.100000)"
fill="#000000" stroke="none">
<path d="M130 600 c0 -12 16 -78 36 -148 118 -424 96 -376 174 -378 36 -1 71
2 77 8 7 6 18 29 23 52 6 22 38 137 71 254 33 117 57 217 54 222 -3 6 -37 10
-75 10 l-68 0 -16 -47 c-8 -27 -22 -77 -32 -113 -9 -36 -20 -68 -24 -73 -3 -4
-19 39 -35 95 -40 145 -33 138 -115 138 -64 0 -70 -2 -70 -20z m124 -22 c2 -7
12 -38 21 -68 9 -30 18 -62 20 -70 7 -38 38 -136 45 -143 13 -14 26 16 59 138
43 155 43 155 91 155 22 0 40 -3 40 -7 0 -5 -29 -114 -66 -244 l-66 -236 -51
1 -50 2 -67 234 c-37 129 -65 238 -63 243 7 12 83 8 87 -5z"/>
</g>
</svg>
